{
	"patcher" : 	{
		"fileversion" : 1,
		"appversion" : 		{
			"major" : 8,
			"minor" : 2,
			"revision" : 2,
			"architecture" : "x64",
			"modernui" : 1
		}
,
		"classnamespace" : "box",
		"rect" : [ 527.0, 87.0, 1487.0, 885.0 ],
		"bglocked" : 0,
		"openinpresentation" : 0,
		"default_fontsize" : 12.0,
		"default_fontface" : 0,
		"default_fontname" : "Arial",
		"gridonopen" : 1,
		"gridsize" : [ 15.0, 15.0 ],
		"gridsnaponopen" : 1,
		"objectsnaponopen" : 1,
		"statusbarvisible" : 2,
		"toolbarvisible" : 1,
		"lefttoolbarpinned" : 0,
		"toptoolbarpinned" : 0,
		"righttoolbarpinned" : 0,
		"bottomtoolbarpinned" : 0,
		"toolbars_unpinned_last_save" : 0,
		"tallnewobj" : 0,
		"boxanimatetime" : 200,
		"enablehscroll" : 1,
		"enablevscroll" : 1,
		"devicewidth" : 0.0,
		"description" : "",
		"digest" : "",
		"tags" : "",
		"style" : "",
		"subpatcher_template" : "",
		"assistshowspatchername" : 0,
		"boxes" : [ 			{
				"box" : 				{
					"fontface" : 0,
					"id" : "obj-76",
					"maxclass" : "o.display",
					"numinlets" : 1,
					"numoutlets" : 1,
					"outlettype" : [ "" ],
					"patching_rect" : [ 720.0, 700.0, 271.0, 33.0 ],
					"text" : "/v : [0, 0, 1]"
				}

			}
, 			{
				"box" : 				{
					"fontface" : 0,
					"id" : "obj-75",
					"linecount" : 8,
					"maxclass" : "o.expr.codebox",
					"numinlets" : 2,
					"numoutlets" : 3,
					"outlettype" : [ "FullPacket", "FullPacket", "FullPacket" ],
					"patching_rect" : [ 720.0, 568.0, 719.0, 121.0 ],
					"text" : "if(/v < 52, \n   /v = [/v, 1], \n   if(/v < 68, \n      /v = [/v, 2], \n      if(/v < 84, \n         /v = [/v, 3], \n         if(/v < 100, \n            /v = [/v, 4]))))"
				}

			}
, 			{
				"box" : 				{
					"id" : "obj-74",
					"maxclass" : "newobj",
					"numinlets" : 1,
					"numoutlets" : 1,
					"outlettype" : [ "FullPacket" ],
					"patching_rect" : [ 720.0, 525.0, 57.0, 22.0 ],
					"text" : "o.pack /v"
				}

			}
, 			{
				"box" : 				{
					"id" : "obj-72",
					"maxclass" : "newobj",
					"numinlets" : 17,
					"numoutlets" : 17,
					"outlettype" : [ "", "", "", "", "", "", "", "", "", "", "", "", "", "", "", "", "" ],
					"patching_rect" : [ 672.0, 194.0, 303.0, 22.0 ],
					"text" : "route 36 37 38 39 40 41 42 43 44 45 46 47 48 49 50 51"
				}

			}
, 			{
				"box" : 				{
					"id" : "obj-69",
					"maxclass" : "newobj",
					"numinlets" : 1,
					"numoutlets" : 1,
					"outlettype" : [ "" ],
					"patching_rect" : [ 672.0, 151.0, 59.0, 22.0 ],
					"text" : "append 1"
				}

			}
, 			{
				"box" : 				{
					"id" : "obj-61",
					"maxclass" : "newobj",
					"numinlets" : 1,
					"numoutlets" : 1,
					"outlettype" : [ "FullPacket" ],
					"patching_rect" : [ 1034.0, 457.0, 212.0, 22.0 ],
					"text" : "o.jm.korgnanopad.triggerhelper /top /8"
				}

			}
, 			{
				"box" : 				{
					"id" : "obj-62",
					"maxclass" : "newobj",
					"numinlets" : 1,
					"numoutlets" : 1,
					"outlettype" : [ "FullPacket" ],
					"patching_rect" : [ 1018.0, 429.0, 212.0, 22.0 ],
					"text" : "o.jm.korgnanopad.triggerhelper /top /7"
				}

			}
, 			{
				"box" : 				{
					"id" : "obj-63",
					"maxclass" : "newobj",
					"numinlets" : 1,
					"numoutlets" : 1,
					"outlettype" : [ "FullPacket" ],
					"patching_rect" : [ 1002.0, 401.0, 212.0, 22.0 ],
					"text" : "o.jm.korgnanopad.triggerhelper /top /6"
				}

			}
, 			{
				"box" : 				{
					"id" : "obj-64",
					"maxclass" : "newobj",
					"numinlets" : 1,
					"numoutlets" : 1,
					"outlettype" : [ "FullPacket" ],
					"patching_rect" : [ 986.0, 373.0, 212.0, 22.0 ],
					"text" : "o.jm.korgnanopad.triggerhelper /top /5"
				}

			}
, 			{
				"box" : 				{
					"id" : "obj-65",
					"maxclass" : "newobj",
					"numinlets" : 1,
					"numoutlets" : 1,
					"outlettype" : [ "FullPacket" ],
					"patching_rect" : [ 970.0, 345.0, 212.0, 22.0 ],
					"text" : "o.jm.korgnanopad.triggerhelper /top /4"
				}

			}
, 			{
				"box" : 				{
					"id" : "obj-66",
					"maxclass" : "newobj",
					"numinlets" : 1,
					"numoutlets" : 1,
					"outlettype" : [ "FullPacket" ],
					"patching_rect" : [ 954.0, 317.0, 212.0, 22.0 ],
					"text" : "o.jm.korgnanopad.triggerhelper /top /3"
				}

			}
, 			{
				"box" : 				{
					"id" : "obj-67",
					"maxclass" : "newobj",
					"numinlets" : 1,
					"numoutlets" : 1,
					"outlettype" : [ "FullPacket" ],
					"patching_rect" : [ 938.0, 289.0, 212.0, 22.0 ],
					"text" : "o.jm.korgnanopad.triggerhelper /top /2"
				}

			}
, 			{
				"box" : 				{
					"id" : "obj-68",
					"maxclass" : "newobj",
					"numinlets" : 1,
					"numoutlets" : 1,
					"outlettype" : [ "FullPacket" ],
					"patching_rect" : [ 922.0, 261.0, 212.0, 22.0 ],
					"text" : "o.jm.korgnanopad.triggerhelper /top /1"
				}

			}
, 			{
				"box" : 				{
					"id" : "obj-60",
					"maxclass" : "newobj",
					"numinlets" : 1,
					"numoutlets" : 1,
					"outlettype" : [ "FullPacket" ],
					"patching_rect" : [ 784.0, 457.0, 232.0, 22.0 ],
					"text" : "o.jm.korgnanopad.triggerhelper /bottom /8"
				}

			}
, 			{
				"box" : 				{
					"id" : "obj-59",
					"maxclass" : "newobj",
					"numinlets" : 1,
					"numoutlets" : 1,
					"outlettype" : [ "FullPacket" ],
					"patching_rect" : [ 768.0, 429.0, 232.0, 22.0 ],
					"text" : "o.jm.korgnanopad.triggerhelper /bottom /7"
				}

			}
, 			{
				"box" : 				{
					"id" : "obj-58",
					"maxclass" : "newobj",
					"numinlets" : 1,
					"numoutlets" : 1,
					"outlettype" : [ "FullPacket" ],
					"patching_rect" : [ 752.0, 401.0, 232.0, 22.0 ],
					"text" : "o.jm.korgnanopad.triggerhelper /bottom /6"
				}

			}
, 			{
				"box" : 				{
					"id" : "obj-57",
					"maxclass" : "newobj",
					"numinlets" : 1,
					"numoutlets" : 1,
					"outlettype" : [ "FullPacket" ],
					"patching_rect" : [ 736.0, 373.0, 232.0, 22.0 ],
					"text" : "o.jm.korgnanopad.triggerhelper /bottom /5"
				}

			}
, 			{
				"box" : 				{
					"id" : "obj-56",
					"maxclass" : "newobj",
					"numinlets" : 1,
					"numoutlets" : 1,
					"outlettype" : [ "FullPacket" ],
					"patching_rect" : [ 720.0, 345.0, 232.0, 22.0 ],
					"text" : "o.jm.korgnanopad.triggerhelper /bottom /4"
				}

			}
, 			{
				"box" : 				{
					"id" : "obj-55",
					"maxclass" : "newobj",
					"numinlets" : 1,
					"numoutlets" : 1,
					"outlettype" : [ "FullPacket" ],
					"patching_rect" : [ 704.0, 317.0, 232.0, 22.0 ],
					"text" : "o.jm.korgnanopad.triggerhelper /bottom /3"
				}

			}
, 			{
				"box" : 				{
					"id" : "obj-54",
					"maxclass" : "newobj",
					"numinlets" : 1,
					"numoutlets" : 1,
					"outlettype" : [ "FullPacket" ],
					"patching_rect" : [ 688.0, 289.0, 232.0, 22.0 ],
					"text" : "o.jm.korgnanopad.triggerhelper /bottom /2"
				}

			}
, 			{
				"box" : 				{
					"fontface" : 0,
					"id" : "obj-53",
					"linecount" : 16,
					"maxclass" : "o.display",
					"numinlets" : 1,
					"numoutlets" : 1,
					"outlettype" : [ "" ],
					"patching_rect" : [ 244.0, 413.0, 271.0, 225.0 ],
					"text" : "/scene/1/top/3/midi : 0,\n/scene/1/top/3/state : \"up\",\n/scene/1/top/3/down : false,\n/scene/1/top/3/up : true,\n/scene/1/3/top/midi : 0,\n/scene/1/3/top/state : \"up\",\n/scene/1/3/top/down : false,\n/scene/1/3/top/up : true,\n/scene/1/midi/3/top : 0,\n/scene/1/state/3/top : \"up\",\n/scene/1/down/3/top : false,\n/scene/1/up/3/top : true,\n/scene/1/midi/top/3 : 0,\n/scene/1/state/top/3 : \"up\",\n/scene/1/down/top/3 : false,\n/scene/1/up/top/3 : true"
				}

			}
, 			{
				"box" : 				{
					"id" : "obj-52",
					"maxclass" : "message",
					"numinlets" : 2,
					"numoutlets" : 1,
					"outlettype" : [ "" ],
					"patching_rect" : [ 286.0, 124.0, 50.0, 22.0 ],
					"text" : "0 0"
				}

			}
, 			{
				"box" : 				{
					"id" : "obj-50",
					"maxclass" : "newobj",
					"numinlets" : 1,
					"numoutlets" : 1,
					"outlettype" : [ "FullPacket" ],
					"patching_rect" : [ 672.0, 261.0, 232.0, 22.0 ],
					"text" : "o.jm.korgnanopad.triggerhelper /bottom /1"
				}

			}
, 			{
				"box" : 				{
					"id" : "obj-49",
					"maxclass" : "newobj",
					"numinlets" : 17,
					"numoutlets" : 17,
					"outlettype" : [ "", "", "", "", "", "", "", "", "", "", "", "", "", "", "", "", "" ],
					"patching_rect" : [ 672.0, 101.0, 328.0, 22.0 ],
					"text" : "routepass 36 37 38 39 40 41 42 43 44 45 46 47 48 49 50 51"
				}

			}
, 			{
				"box" : 				{
					"id" : "obj-48",
					"maxclass" : "newobj",
					"numinlets" : 1,
					"numoutlets" : 1,
					"outlettype" : [ "FullPacket" ],
					"patching_rect" : [ 112.0, 373.0, 105.0, 22.0 ],
					"text" : "o.prepend /pad/xy"
				}

			}
, 			{
				"box" : 				{
					"comment" : "",
					"id" : "obj-47",
					"index" : 1,
					"maxclass" : "outlet",
					"numinlets" : 1,
					"numoutlets" : 0,
					"patching_rect" : [ 112.0, 659.0, 30.0, 30.0 ]
				}

			}
, 			{
				"box" : 				{
					"fontface" : 0,
					"id" : "obj-44",
					"maxclass" : "o.compose",
					"numinlets" : 2,
					"numoutlets" : 1,
					"outlettype" : [ "" ],
					"patching_rect" : [ 537.0, 261.0, 73.0, 23.0 ],
					"saved_bundle_data" : [ 35, 98, 117, 110, 100, 108, 101, 0, 0, 0, 0, 0, 0, 0, 0, 0, 0, 0, 0, 16, 47, 114, 101, 108, 101, 97, 115, 101, 0, 0, 0, 0, 44, 0, 0, 0 ],
					"saved_bundle_length" : 36,
					"text" : "/release"
				}

			}
, 			{
				"box" : 				{
					"id" : "obj-43",
					"maxclass" : "newobj",
					"numinlets" : 3,
					"numoutlets" : 3,
					"outlettype" : [ "bang", "bang", "" ],
					"patching_rect" : [ 471.0, 228.0, 44.0, 22.0 ],
					"text" : "sel 1 0"
				}

			}
, 			{
				"box" : 				{
					"fontface" : 0,
					"id" : "obj-42",
					"maxclass" : "o.compose",
					"numinlets" : 2,
					"numoutlets" : 1,
					"outlettype" : [ "" ],
					"patching_rect" : [ 471.0, 261.0, 60.0, 23.0 ],
					"saved_bundle_data" : [ 35, 98, 117, 110, 100, 108, 101, 0, 0, 0, 0, 0, 0, 0, 0, 0, 0, 0, 0, 12, 47, 116, 111, 117, 99, 104, 0, 0, 44, 0, 0, 0 ],
					"saved_bundle_length" : 32,
					"text" : "/touch"
				}

			}
, 			{
				"box" : 				{
					"id" : "obj-39",
					"maxclass" : "newobj",
					"numinlets" : 1,
					"numoutlets" : 1,
					"outlettype" : [ "" ],
					"patching_rect" : [ 112.0, 316.0, 54.0, 22.0 ],
					"text" : "o.accum"
				}

			}
, 			{
				"box" : 				{
					"id" : "obj-37",
					"maxclass" : "newobj",
					"numinlets" : 1,
					"numoutlets" : 1,
					"outlettype" : [ "FullPacket" ],
					"patching_rect" : [ 290.0, 261.0, 166.0, 22.0 ],
					"text" : "o.jm.korgnanopad.xyhelper /y"
				}

			}
, 			{
				"box" : 				{
					"id" : "obj-35",
					"maxclass" : "newobj",
					"numinlets" : 1,
					"numoutlets" : 1,
					"outlettype" : [ "FullPacket" ],
					"patching_rect" : [ 112.0, 261.0, 166.0, 22.0 ],
					"text" : "o.jm.korgnanopad.xyhelper /x"
				}

			}
, 			{
				"box" : 				{
					"id" : "obj-25",
					"maxclass" : "toggle",
					"numinlets" : 1,
					"numoutlets" : 1,
					"outlettype" : [ "int" ],
					"parameter_enable" : 0,
					"patching_rect" : [ 471.0, 194.0, 24.0, 24.0 ]
				}

			}
, 			{
				"box" : 				{
					"id" : "obj-18",
					"maxclass" : "newobj",
					"numinlets" : 4,
					"numoutlets" : 4,
					"outlettype" : [ "", "", "", "" ],
					"patching_rect" : [ 112.0, 142.0, 73.0, 22.0 ],
					"text" : "route 1 2 16"
				}

			}
, 			{
				"box" : 				{
					"id" : "obj-17",
					"maxclass" : "newobj",
					"numinlets" : 2,
					"numoutlets" : 2,
					"outlettype" : [ "", "" ],
					"patching_rect" : [ 112.0, 105.0, 37.0, 22.0 ],
					"text" : "zl.rev"
				}

			}
, 			{
				"box" : 				{
					"id" : "obj-2",
					"maxclass" : "newobj",
					"numinlets" : 2,
					"numoutlets" : 1,
					"outlettype" : [ "" ],
					"patching_rect" : [ 112.0, 72.0, 54.0, 22.0 ],
					"text" : "pack 0 0"
				}

			}
, 			{
				"box" : 				{
					"id" : "obj-1",
					"maxclass" : "newobj",
					"numinlets" : 1,
					"numoutlets" : 3,
					"outlettype" : [ "int", "int", "int" ],
					"patching_rect" : [ 112.0, 41.0, 126.0, 22.0 ],
					"text" : "ctlin \"nanoPAD2 PAD\""
				}

			}
 ],
		"lines" : [ 			{
				"patchline" : 				{
					"destination" : [ "obj-2", 1 ],
					"source" : [ "obj-1", 1 ]
				}

			}
, 			{
				"patchline" : 				{
					"destination" : [ "obj-2", 0 ],
					"source" : [ "obj-1", 0 ]
				}

			}
, 			{
				"patchline" : 				{
					"destination" : [ "obj-18", 0 ],
					"order" : 2,
					"source" : [ "obj-17", 0 ]
				}

			}
, 			{
				"patchline" : 				{
					"destination" : [ "obj-49", 0 ],
					"order" : 0,
					"source" : [ "obj-17", 0 ]
				}

			}
, 			{
				"patchline" : 				{
					"destination" : [ "obj-52", 1 ],
					"order" : 1,
					"source" : [ "obj-17", 0 ]
				}

			}
, 			{
				"patchline" : 				{
					"destination" : [ "obj-25", 0 ],
					"source" : [ "obj-18", 2 ]
				}

			}
, 			{
				"patchline" : 				{
					"destination" : [ "obj-35", 0 ],
					"source" : [ "obj-18", 0 ]
				}

			}
, 			{
				"patchline" : 				{
					"destination" : [ "obj-37", 0 ],
					"source" : [ "obj-18", 1 ]
				}

			}
, 			{
				"patchline" : 				{
					"destination" : [ "obj-74", 0 ],
					"source" : [ "obj-18", 3 ]
				}

			}
, 			{
				"patchline" : 				{
					"destination" : [ "obj-17", 0 ],
					"source" : [ "obj-2", 0 ]
				}

			}
, 			{
				"patchline" : 				{
					"destination" : [ "obj-43", 0 ],
					"source" : [ "obj-25", 0 ]
				}

			}
, 			{
				"patchline" : 				{
					"destination" : [ "obj-39", 0 ],
					"source" : [ "obj-35", 0 ]
				}

			}
, 			{
				"patchline" : 				{
					"destination" : [ "obj-39", 0 ],
					"source" : [ "obj-37", 0 ]
				}

			}
, 			{
				"patchline" : 				{
					"destination" : [ "obj-48", 0 ],
					"source" : [ "obj-39", 0 ]
				}

			}
, 			{
				"patchline" : 				{
					"destination" : [ "obj-48", 0 ],
					"source" : [ "obj-42", 0 ]
				}

			}
, 			{
				"patchline" : 				{
					"destination" : [ "obj-42", 0 ],
					"source" : [ "obj-43", 0 ]
				}

			}
, 			{
				"patchline" : 				{
					"destination" : [ "obj-44", 0 ],
					"source" : [ "obj-43", 1 ]
				}

			}
, 			{
				"patchline" : 				{
					"destination" : [ "obj-48", 0 ],
					"source" : [ "obj-44", 0 ]
				}

			}
, 			{
				"patchline" : 				{
					"destination" : [ "obj-47", 0 ],
					"source" : [ "obj-48", 0 ]
				}

			}
, 			{
				"patchline" : 				{
					"destination" : [ "obj-69", 0 ],
					"source" : [ "obj-49", 15 ]
				}

			}
, 			{
				"patchline" : 				{
					"destination" : [ "obj-69", 0 ],
					"source" : [ "obj-49", 14 ]
				}

			}
, 			{
				"patchline" : 				{
					"destination" : [ "obj-69", 0 ],
					"source" : [ "obj-49", 13 ]
				}

			}
, 			{
				"patchline" : 				{
					"destination" : [ "obj-69", 0 ],
					"source" : [ "obj-49", 12 ]
				}

			}
, 			{
				"patchline" : 				{
					"destination" : [ "obj-69", 0 ],
					"source" : [ "obj-49", 11 ]
				}

			}
, 			{
				"patchline" : 				{
					"destination" : [ "obj-69", 0 ],
					"source" : [ "obj-49", 10 ]
				}

			}
, 			{
				"patchline" : 				{
					"destination" : [ "obj-69", 0 ],
					"source" : [ "obj-49", 9 ]
				}

			}
, 			{
				"patchline" : 				{
					"destination" : [ "obj-69", 0 ],
					"source" : [ "obj-49", 8 ]
				}

			}
, 			{
				"patchline" : 				{
					"destination" : [ "obj-69", 0 ],
					"source" : [ "obj-49", 7 ]
				}

			}
, 			{
				"patchline" : 				{
					"destination" : [ "obj-69", 0 ],
					"source" : [ "obj-49", 6 ]
				}

			}
, 			{
				"patchline" : 				{
					"destination" : [ "obj-69", 0 ],
					"source" : [ "obj-49", 5 ]
				}

			}
, 			{
				"patchline" : 				{
					"destination" : [ "obj-69", 0 ],
					"source" : [ "obj-49", 4 ]
				}

			}
, 			{
				"patchline" : 				{
					"destination" : [ "obj-69", 0 ],
					"source" : [ "obj-49", 3 ]
				}

			}
, 			{
				"patchline" : 				{
					"destination" : [ "obj-69", 0 ],
					"source" : [ "obj-49", 2 ]
				}

			}
, 			{
				"patchline" : 				{
					"destination" : [ "obj-69", 0 ],
					"source" : [ "obj-49", 1 ]
				}

			}
, 			{
				"patchline" : 				{
					"destination" : [ "obj-69", 0 ],
					"source" : [ "obj-49", 0 ]
				}

			}
, 			{
				"patchline" : 				{
					"destination" : [ "obj-53", 0 ],
					"source" : [ "obj-50", 0 ]
				}

			}
, 			{
				"patchline" : 				{
					"destination" : [ "obj-47", 0 ],
					"source" : [ "obj-53", 0 ]
				}

			}
, 			{
				"patchline" : 				{
					"destination" : [ "obj-53", 0 ],
					"source" : [ "obj-54", 0 ]
				}

			}
, 			{
				"patchline" : 				{
					"destination" : [ "obj-53", 0 ],
					"source" : [ "obj-55", 0 ]
				}

			}
, 			{
				"patchline" : 				{
					"destination" : [ "obj-53", 0 ],
					"source" : [ "obj-56", 0 ]
				}

			}
, 			{
				"patchline" : 				{
					"destination" : [ "obj-53", 0 ],
					"source" : [ "obj-57", 0 ]
				}

			}
, 			{
				"patchline" : 				{
					"destination" : [ "obj-53", 0 ],
					"source" : [ "obj-58", 0 ]
				}

			}
, 			{
				"patchline" : 				{
					"destination" : [ "obj-53", 0 ],
					"source" : [ "obj-59", 0 ]
				}

			}
, 			{
				"patchline" : 				{
					"destination" : [ "obj-53", 0 ],
					"source" : [ "obj-60", 0 ]
				}

			}
, 			{
				"patchline" : 				{
					"destination" : [ "obj-53", 0 ],
					"source" : [ "obj-61", 0 ]
				}

			}
, 			{
				"patchline" : 				{
					"destination" : [ "obj-53", 0 ],
					"source" : [ "obj-62", 0 ]
				}

			}
, 			{
				"patchline" : 				{
					"destination" : [ "obj-53", 0 ],
					"source" : [ "obj-63", 0 ]
				}

			}
, 			{
				"patchline" : 				{
					"destination" : [ "obj-53", 0 ],
					"source" : [ "obj-64", 0 ]
				}

			}
, 			{
				"patchline" : 				{
					"destination" : [ "obj-53", 0 ],
					"source" : [ "obj-65", 0 ]
				}

			}
, 			{
				"patchline" : 				{
					"destination" : [ "obj-53", 0 ],
					"source" : [ "obj-66", 0 ]
				}

			}
, 			{
				"patchline" : 				{
					"destination" : [ "obj-53", 0 ],
					"source" : [ "obj-67", 0 ]
				}

			}
, 			{
				"patchline" : 				{
					"destination" : [ "obj-53", 0 ],
					"source" : [ "obj-68", 0 ]
				}

			}
, 			{
				"patchline" : 				{
					"destination" : [ "obj-72", 0 ],
					"source" : [ "obj-69", 0 ]
				}

			}
, 			{
				"patchline" : 				{
					"destination" : [ "obj-50", 0 ],
					"source" : [ "obj-72", 0 ]
				}

			}
, 			{
				"patchline" : 				{
					"destination" : [ "obj-54", 0 ],
					"source" : [ "obj-72", 2 ]
				}

			}
, 			{
				"patchline" : 				{
					"destination" : [ "obj-55", 0 ],
					"source" : [ "obj-72", 4 ]
				}

			}
, 			{
				"patchline" : 				{
					"destination" : [ "obj-56", 0 ],
					"source" : [ "obj-72", 6 ]
				}

			}
, 			{
				"patchline" : 				{
					"destination" : [ "obj-57", 0 ],
					"source" : [ "obj-72", 8 ]
				}

			}
, 			{
				"patchline" : 				{
					"destination" : [ "obj-58", 0 ],
					"source" : [ "obj-72", 10 ]
				}

			}
, 			{
				"patchline" : 				{
					"destination" : [ "obj-59", 0 ],
					"source" : [ "obj-72", 12 ]
				}

			}
, 			{
				"patchline" : 				{
					"destination" : [ "obj-60", 0 ],
					"source" : [ "obj-72", 14 ]
				}

			}
, 			{
				"patchline" : 				{
					"destination" : [ "obj-61", 0 ],
					"source" : [ "obj-72", 15 ]
				}

			}
, 			{
				"patchline" : 				{
					"destination" : [ "obj-62", 0 ],
					"source" : [ "obj-72", 13 ]
				}

			}
, 			{
				"patchline" : 				{
					"destination" : [ "obj-63", 0 ],
					"source" : [ "obj-72", 11 ]
				}

			}
, 			{
				"patchline" : 				{
					"destination" : [ "obj-64", 0 ],
					"source" : [ "obj-72", 9 ]
				}

			}
, 			{
				"patchline" : 				{
					"destination" : [ "obj-65", 0 ],
					"source" : [ "obj-72", 7 ]
				}

			}
, 			{
				"patchline" : 				{
					"destination" : [ "obj-66", 0 ],
					"source" : [ "obj-72", 5 ]
				}

			}
, 			{
				"patchline" : 				{
					"destination" : [ "obj-67", 0 ],
					"source" : [ "obj-72", 3 ]
				}

			}
, 			{
				"patchline" : 				{
					"destination" : [ "obj-68", 0 ],
					"source" : [ "obj-72", 1 ]
				}

			}
, 			{
				"patchline" : 				{
					"destination" : [ "obj-75", 0 ],
					"source" : [ "obj-74", 0 ]
				}

			}
, 			{
				"patchline" : 				{
					"destination" : [ "obj-76", 0 ],
					"source" : [ "obj-75", 0 ]
				}

			}
 ]
	}

}
